<svg xmlns="http://www.w3.org/2000/svg" xmlns:xlink="http://www.w3.org/1999/xlink" width="2000" zoomAndPan="magnify" viewBox="0 0 1500 1499.999933" height="2000" preserveAspectRatio="xMidYMid meet" version="1.0"><defs><g/><clipPath id="5732d14b5d"><path d="M 48.128906 60.160156 L 1453 60.160156 L 1453 1391.210938 L 48.128906 1391.210938 Z M 48.128906 60.160156 " clip-rule="nonzero"/></clipPath><clipPath id="7df48328fd"><path d="M 123.128906 60.160156 L 1377.789062 60.160156 C 1419.210938 60.160156 1452.789062 93.738281 1452.789062 135.160156 L 1452.789062 1316.210938 C 1452.789062 1357.632812 1419.210938 1391.210938 1377.789062 1391.210938 L 123.128906 1391.210938 C 81.707031 1391.210938 48.128906 1357.632812 48.128906 1316.210938 L 48.128906 135.160156 C 48.128906 93.738281 81.707031 60.160156 123.128906 60.160156 Z M 123.128906 60.160156 " clip-rule="nonzero"/></clipPath><clipPath id="b499fc1bc5"><path d="M 0.128906 0.160156 L 1404 0.160156 L 1404 1331.210938 L 0.128906 1331.210938 Z M 0.128906 0.160156 " clip-rule="nonzero"/></clipPath><clipPath id="401900144b"><path d="M 75.128906 0.160156 L 1329.789062 0.160156 C 1371.210938 0.160156 1404.789062 33.738281 1404.789062 75.160156 L 1404.789062 1256.210938 C 1404.789062 1297.632812 1371.210938 1331.210938 1329.789062 1331.210938 L 75.128906 1331.210938 C 33.707031 1331.210938 0.128906 1297.632812 0.128906 1256.210938 L 0.128906 75.160156 C 0.128906 33.738281 33.707031 0.160156 75.128906 0.160156 Z M 75.128906 0.160156 " clip-rule="nonzero"/></clipPath><clipPath id="3e6ab57b4a"><rect x="0" width="1405" y="0" height="1332"/></clipPath><clipPath id="fd24258b8a"><rect x="0" width="625" y="0" height="589"/></clipPath></defs><g clip-path="url(#5732d14b5d)"><g clip-path="url(#7df48328fd)"><g transform="matrix(1, 0, 0, 1, 48, 60)"><g clip-path="url(#3e6ab57b4a)"><g clip-path="url(#b499fc1bc5)"><g clip-path="url(#401900144b)"><path fill="#3a3f46" d="M 0.128906 0.160156 L 1403.972656 0.160156 L 1403.972656 1331.210938 L 0.128906 1331.210938 Z M 0.128906 0.160156 " fill-opacity="1" fill-rule="nonzero"/></g></g></g></g></g></g><g transform="matrix(1, 0, 0, 1, 438, 431)"><g clip-path="url(#fd24258b8a)"><g fill="#ffffff" fill-opacity="1"><g transform="translate(0.394711, 474.571701)"><g><path d="M 100.6875 0 L 32.296875 0 L 32.296875 -362.40625 L 274.0625 -362.40625 L 274.0625 -301.125 L 100.6875 -301.125 L 100.6875 -211.84375 L 256.015625 -211.84375 L 256.015625 -151.046875 L 100.6875 -151.046875 Z M 100.6875 0 "/></g></g></g><g fill="#ffffff" fill-opacity="1"><g transform="translate(287.274228, 474.571701)"><g><path d="M 75.046875 0 L 3.328125 0 L 131.09375 -362.40625 L 206.140625 -362.40625 L 333.90625 0 L 262.1875 0 L 237.484375 -74.5625 L 99.265625 -74.5625 Z M 168.609375 -287.828125 L 118.734375 -134.421875 L 218.484375 -134.421875 Z M 168.609375 -287.828125 "/></g></g></g></g></g></svg>